<svg preserveAspectRatio="none" width="100%" height="100%" overflow="visible" style="display: block;" viewBox="0 0 64 64" fill="none" xmlns="http://www.w3.org/2000/svg">
<g id="24 Hours Service">
<path id="24 Hours" d="M30 52C30 52.5304 29.7893 53.0391 29.4142 53.4142C29.0391 53.7893 28.5304 54 28 54C23.6488 54 19.3953 52.7097 15.7775 50.2923C12.1596 47.8749 9.33978 44.439 7.67465 40.419C6.00952 36.3991 5.57385 31.9756 6.42272 27.708C7.2716 23.4404 9.3669 19.5204 12.4437 16.4437C15.5204 13.3669 19.4404 11.2716 23.708 10.4227C27.9756 9.57385 32.3991 10.0095 36.419 11.6747C40.439 13.3398 43.8749 16.1596 46.2923 19.7775C48.7097 23.3953 50 27.6488 50 32C50 32.5304 49.7893 33.0391 49.4142 33.4142C49.0391 33.7893 48.5304 34 48 34C47.4696 34 46.9609 33.7893 46.5858 33.4142C46.2107 33.0391 46 32.5304 46 32C46 28.4399 44.9443 24.9598 42.9665 21.9997C40.9886 19.0397 38.1774 16.7325 34.8883 15.3702C31.5992 14.0078 27.98 13.6513 24.4884 14.3459C20.9967 15.0404 17.7894 16.7547 15.2721 19.2721C12.7547 21.7894 11.0404 24.9967 10.3459 28.4884C9.65133 31.98 10.0078 35.5992 11.3702 38.8883C12.7325 42.1774 15.0396 44.9886 17.9997 46.9665C20.9598 48.9443 24.4399 50 28 50C28.5304 50 29.0391 50.2107 29.4142 50.5858C29.7893 50.9609 30 51.4696 30 52ZM26 20V30H20C19.4696 30 18.9609 30.2107 18.5858 30.5858C18.2107 30.9609 18 31.4696 18 32C18 32.5304 18.2107 33.0391 18.5858 33.4142C18.9609 33.7893 19.4696 34 20 34H28C28.5304 34 29.0391 33.7893 29.4142 33.4142C29.7893 33.0391 30 32.5304 30 32V20C30 19.4696 29.7893 18.9609 29.4142 18.5858C29.0391 18.2107 28.5304 18 28 18C27.4696 18 26.9609 18.2107 26.5858 18.5858C26.2107 18.9609 26 19.4696 26 20ZM42 36H34C33.4696 36 32.9609 36.2107 32.5858 36.5858C32.2107 36.9609 32 37.4696 32 38C32 38.5304 32.2107 39.0391 32.5858 39.4142C32.9609 39.7893 33.4696 40 34 40H40V42H34C33.4696 42 32.9609 42.2107 32.5858 42.5858C32.2107 42.9609 32 43.4696 32 44V50C32 50.5304 32.2107 51.0391 32.5858 51.4142C32.9609 51.7893 33.4696 52 34 52H42C42.5304 52 43.0391 51.7893 43.4142 51.4142C43.7893 51.0391 44 50.5304 44 50C44 49.4696 43.7893 48.9609 43.4142 48.5858C43.0391 48.2107 42.5304 48 42 48H36V46H42C42.5304 46 43.0391 45.7893 43.4142 45.4142C43.7893 45.0391 44 44.5304 44 44V38C44 37.4696 43.7893 36.9609 43.4142 36.5858C43.0391 36.2107 42.5304 36 42 36ZM56 36C55.4696 36 54.9609 36.2107 54.5858 36.5858C54.2107 36.9609 54 37.4696 54 38V42H50V38C50 37.4696 49.7893 36.9609 49.4142 36.5858C49.0391 36.2107 48.5304 36 48 36C47.4696 36 46.9609 36.2107 46.5858 36.5858C46.2107 36.9609 46 37.4696 46 38V44C46 44.5304 46.2107 45.0391 46.5858 45.4142C46.9609 45.7893 47.4696 46 48 46H54V50C54 50.5304 54.2107 51.0391 54.5858 51.4142C54.9609 51.7893 55.4696 52 56 52C56.5304 52 57.0391 51.7893 57.4142 51.4142C57.7893 51.0391 58 50.5304 58 50V38C58 37.4696 57.7893 36.9609 57.4142 36.5858C57.0391 36.2107 56.5304 36 56 36Z" fill="var(--fill-0, white)"/>
</g>
</svg>
