<svg preserveAspectRatio="none" width="100%" height="100%" overflow="visible" style="display: block;" viewBox="0 0 16 16" fill="none" xmlns="http://www.w3.org/2000/svg">
<g id="Group 62">
<g id="Vector">
</g>
<path id="Vector_2" d="M8 1.33333C5.42 1.33333 3.33333 3.42 3.33333 6C3.33333 8.78 6.28 12.6133 7.49333 14.0733C7.76 14.3933 8.24667 14.3933 8.51333 14.0733C9.72 12.6133 12.6667 8.78 12.6667 6C12.6667 3.42 10.58 1.33333 8 1.33333ZM8 7.66667C7.08 7.66667 6.33333 6.92 6.33333 6C6.33333 5.08 7.08 4.33333 8 4.33333C8.92 4.33333 9.66667 5.08 9.66667 6C9.66667 6.92 8.92 7.66667 8 7.66667Z" fill="var(--fill-0, white)"/>
</g>
</svg>
