<svg preserveAspectRatio="none" width="100%" height="100%" overflow="visible" style="display: block;" viewBox="0 0 64 64" fill="none" xmlns="http://www.w3.org/2000/svg">
<g id="Threat">
<path id="Vector" fill-rule="evenodd" clip-rule="evenodd" d="M27.0076 35.2788C27.0498 36.0474 27.2656 36.7696 27.6164 37.4072L25 38.2792V44C25 44.5524 25.4478 45 26 45C26.5522 45 27 44.5524 27 44V39.7208L29.05 39.0374C29.877 39.6426 30.8968 40 32 40C33.1032 40 34.123 39.6426 34.95 39.0374L37 39.7208V44C37 44.5524 37.4478 45 38 45C38.5524 45 39 44.5524 39 44V38.2792L36.3836 37.407C36.7344 36.7696 36.9502 36.0474 36.9924 35.2788L39.1436 35.8166L40.0194 40.1962C40.1278 40.7376 40.6546 41.0888 41.1962 40.9806C41.7376 40.8722 42.0888 40.3454 41.9806 39.8038L40.8564 34.1834L37 33.2192V33C37 32.6576 36.9656 32.3232 36.9 32H40V26C40 25.4478 39.5522 25 39 25C38.4478 25 38 25.4478 38 26V30H36.0004C35.595 29.4602 35.0828 29.0052 34.4952 28.6662C34.814 28.1896 35 27.6164 35 27C35 25.3432 33.6568 24 32 24C30.3432 24 29 25.3432 29 27C29 27.6164 29.186 28.1896 29.5048 28.6662C28.9172 29.0052 28.405 29.4602 27.9996 30H26V26C26 25.4478 25.5522 25 25 25C24.4478 25 24 25.4478 24 26V32H27.1C27.0344 32.3232 27 32.6576 27 33V33.2192L23.1436 34.1834L22.0194 39.8038C21.9112 40.3454 22.2624 40.8722 22.8038 40.9806C23.3454 41.0888 23.8722 40.7376 23.9806 40.1962L24.8564 35.8166L27.0076 35.2788ZM35 35V34.0228C34.9996 34.0082 34.9996 33.9934 35 33.9788V33C35 31.3432 33.6568 30 32 30C30.3432 30 29 31.3432 29 33V33.9786C29.0004 33.9934 29.0004 34.0082 29 34.0228V35C29 36.6568 30.3432 38 32 38C33.6568 38 35 36.6568 35 35ZM32 28C32.5522 28 33 27.5522 33 27C33 26.4478 32.5522 26 32 26C31.4478 26 31 26.4478 31 27C31 27.5522 31.4478 28 32 28Z" fill="var(--fill-0, white)"/>
<path id="Vector_2" fill-rule="evenodd" clip-rule="evenodd" d="M46 46H48C50.2092 46 52 47.7908 52 50V56C52 58.2092 50.2092 60 48 60H16C13.7909 60 12 58.2092 12 56V50C12 47.7908 13.7909 46 16 46H18V34H10V35C10 35.5522 9.55228 36 9 36H5C4.44772 36 4 35.5522 4 35V31C4 30.4478 4.44772 30 5 30H9C9.55228 30 10 30.4478 10 31V32H18V26C18 24.939 18.2065 23.9264 18.5815 23H12V10H11C10.4477 10 10 9.55228 10 9V5C10 4.44772 10.4477 4 11 4H15C15.5523 4 16 4.44772 16 5V9C16 9.55228 15.5523 10 15 10H14V21H19.7546C21.2208 19.1711 23.4736 18 26 18H31V10H30C29.4478 10 29 9.55228 29 9V5C29 4.44772 29.4478 4 30 4H34C34.5522 4 35 4.44772 35 5V9C35 9.55228 34.5522 10 34 10H33V18H38C40.5264 18 42.7792 19.1711 44.2454 21H50V10H49C48.4478 10 48 9.55228 48 9V5C48 4.44772 48.4478 4 49 4H53C53.5522 4 54 4.44772 54 5V9C54 9.55228 53.5522 10 53 10H52V23H45.4184C45.7934 23.9264 46 24.939 46 26V32H54V31C54 30.4478 54.4478 30 55 30H59C59.5522 30 60 30.4478 60 31V35C60 35.5522 59.5522 36 59 36H55C54.4478 36 54 35.5522 54 35V34H46V46ZM48 48C49.1046 48 50 48.8954 50 50V56C50 57.1046 49.1046 58 48 58H16C14.8954 58 14 57.1046 14 56V50C14 48.8954 14.8954 48 16 48H48ZM8 34V32H6V34H8ZM44 46H20V26C20 22.6862 22.6862 20 26 20H38C41.3138 20 44 22.6862 44 26V46ZM56 32V34H58V32H56ZM31 6V8H33V6H31ZM50 8V6H52V8H50ZM12 6V8H14V6H12Z" fill="var(--fill-0, white)"/>
</g>
</svg>
